<svg xmlns="http://www.w3.org/2000/svg" viewBox="0 0 512 512" role="img" aria-labelledby="title desc">
  <title id="title">CloudyPop Breathing</title>
  <desc id="desc">Rounded cloud with rhythmic pulse and sparkle accents</desc>
  <defs>
    <linearGradient id="sky" x1="0%" x2="100%" y1="0%" y2="100%">
      <stop stop-color="#6c5ce7" offset="0" />
      <stop stop-color="#b973ff" offset="1" />
    </linearGradient>
    <linearGradient id="glow" x1="0%" x2="100%" y1="0%" y2="0%">
      <stop stop-color="#ffffff" stop-opacity="0.85" offset="0" />
      <stop stop-color="#ffffff" stop-opacity="0.3" offset="1" />
    </linearGradient>
  </defs>
  <rect width="512" height="512" rx="128" fill="#0a0a0f" />
  <rect x="36" y="36" width="440" height="440" rx="110" fill="url(#sky)" />
  <g transform="translate(90 160)">
    <path d="M66 150c-32 0-58-24-58-54s26-54 58-54c9 0 18 2 26 6C103 20 132 0 166 0c43 0 78 30 82 69h5c44 0 80 34 80 76s-36 76-80 76H66Z" fill="#fff" opacity="0.92" />
    <path d="M96 138c-18 0-32-13-32-30s14-30 32-30c5 0 10 1 15 3 6-19 25-33 47-33 24 0 45 17 48 40h3c26 0 46 20 46 45s-21 45-46 45H96Z" fill="#e9edff" />
  </g>
  <g fill="url(#glow)">
    <circle cx="130" cy="126" r="10" />
    <circle cx="390" cy="186" r="7" />
    <circle cx="370" cy="118" r="5" />
  </g>
  <g stroke="#0a0a0f" stroke-width="14" stroke-linecap="round" fill="none">
    <path d="M140 350h70" />
    <path d="M240 330h70" />
    <path d="M240 370h130" />
  </g>
  <circle cx="170" cy="350" r="24" fill="#0a0a0f" />
  <circle cx="170" cy="350" r="16" fill="#ffd166" />
  <circle cx="410" cy="350" r="20" fill="#0a0a0f" />
  <circle cx="410" cy="350" r="12" fill="#72efdd" />
</svg>
